# xmcd CD database file
#
# Track frame offsets:
#	150
#	5412
#	14160
#	23130
#	26010
#	41575
#	53822
#	59395
#	65260
#	69367
#	85662
#	86102
#	93942
#	107337
#	114100
#	119355
#	146470
#	149965
#	152005
#	156140
#	181550
#	183317
#	186787
#	198115
#	203370
#	206317
#	209675
#	222625
#	228805
#	237915
#	243000
#
# Disc length: 3264 seconds
#
# Revision: 1
# Processed by: cddbd v1.5.2PL0 Copyright (c) Steve Scherf et al.
# Submitted via: CDex 1.70beta2
#
DISCID=9e0cbe1f
DTITLE=伊福部昭 - 完全収録 伊福部 昭 特撮映画音楽 東宝編 CD-2
DYEAR=1987
DGENRE=Soundtrack
TTITLE0=空の大怪獣ラドン-ラドン出現
TTITLE1=空の大怪獣ラドン-ラドン追撃せよ
TTITLE2=空の大怪獣ラドン-ラドン佐世保に飛来
TTITLE3=空の大怪獣ラドン-ラドンと西海橋
TTITLE4=空の大怪獣ラドン-ラドン福岡襲撃Ⅰ
TTITLE5=空の大怪獣ラドン-衝撃波の猛威
TTITLE6=空の大怪獣ラドン-ラドン福岡襲撃Ⅱ
TTITLE7=空の大怪獣ラドン-自衛隊阿蘇へ
TTITLE8=空の大怪獣ラドン-大阿蘇の自然
TTITLE9=空の大怪獣ラドン-エンディング
TTITLE10=地球防衛軍-録音用クレジット
TTITLE11=地球防衛軍-メインタイトル
TTITLE12=地球防衛軍-異変
TTITLE13=地球防衛軍-大陥没
TTITLE14=地球防衛軍-モゲラ出現
TTITLE15=地球防衛軍-モゲラの進撃
TTITLE16=地球防衛軍-月の科学現象
TTITLE17=地球防衛軍-調査隊富士へ
TTITLE18=地球防衛軍-ミステリアンドーム
TTITLE19=地球防衛軍-第一次攻防戦
TTITLE20=地球防衛軍-国際会議要請
TTITLE21=地球防衛軍-地球防衛会議
TTITLE22=地球防衛軍-アルファー号とベーター号
TTITLE23=地球防衛軍-攻撃準備
TTITLE24=地球防衛軍-誘拐
TTITLE25=地球防衛軍-避難120km
TTITLE26=地球防衛軍-マーカライト・ファープ
TTITLE27=地球防衛軍-ミステリアンの報復
TTITLE28=地球防衛軍-電磁砲猛攻撃
TTITLE29=地球防衛軍-エンディング
TTITLE30=地球防衛軍-ミステリアン去る
EXTD=YEAR: 1987
EXTT0=
EXTT1=
EXTT2=
EXTT3=
EXTT4=
EXTT5=
EXTT6=
EXTT7=
EXTT8=
EXTT9=
EXTT10=
EXTT11=
EXTT12=
EXTT13=
EXTT14=
EXTT15=
EXTT16=
EXTT17=
EXTT18=
EXTT19=
EXTT20=
EXTT21=
EXTT22=
EXTT23=
EXTT24=
EXTT25=
EXTT26=
EXTT27=
EXTT28=
EXTT29=
EXTT30=
PLAYORDER=
